# File created by Blade
# Date/Time:  Thu Jan 22 19:29:39 2015
# Frame Rate: 120.000 fps
#------------------------------------------------------
:FULLY-SPECIFIED
:DEGREES
1633
root 1.387992 33.710403 1.039030 82.203327 -15.566139 -24.560983
RightUpLeg -9.630026 14.739487 -27.685070
RightLeg 151.611526 -0.000000 -0.000000
RightFoot 34.496876 4.835753 5.281004
RightToeBase -18.327483 -0.000000 0.000000
LeftUpLeg -84.697156 13.562743 8.844885
LeftLeg 31.279711 -0.000000 -0.000000
LeftFoot -26.246339 13.384777 -8.958827
LeftToeBase 7.060968 -0.000000 -0.000000
Spine -15.230098 -5.611077 -2.057129
RightShoulder -20.812522 -30.375914 -10.062578
RightArm 6.733614 -59.437308 66.186271
RightForeArm 30.411711 -0.000000 34.036626
RightHand -8.334054 -0.000000 15.663351
RightHandThumb1 -24.326973 -0.000000 -32.862282
LeftShoulder -33.917585 1.708513 37.782588
LeftArm 137.006555 -42.779038 -107.980123
LeftForeArm -9.018629 -0.000000 54.362186
LeftHand -12.808521 -0.000000 15.285938
LeftHandThumb1 -26.253704 0.000000 33.147579
Head -42.441582 25.201643 -12.035737
1634
root 1.377808 33.722271 1.052248 81.867302 -15.715575 -24.564633
RightUpLeg -9.805751 14.494746 -27.556968
RightLeg 151.700202 -0.000000 -0.000000
RightFoot 34.457215 4.973535 5.087530
RightToeBase -18.082772 -0.000000 0.000000
LeftUpLeg -84.175517 13.475644 8.965537
LeftLeg 31.107540 -0.000000 -0.000000
LeftFoot -26.196855 13.558938 -8.956260
LeftToeBase 7.025546 -0.000000 -0.000000
Spine -15.181322 -5.601990 -2.042097
RightShoulder -20.804603 -30.394465 -9.931288
RightArm 6.882224 -59.217968 66.250031
RightForeArm 30.152914 -0.000000 33.836550
RightHand -8.324659 0.000000 15.773314
RightHandThumb1 -24.326973 -0.000000 -32.862282
LeftShoulder -33.727434 1.680915 37.842043
LeftArm 136.066014 -42.824644 -107.521617
LeftForeArm -9.012562 -0.000000 54.497300
LeftHand -12.730652 -0.000000 15.322570
LeftHandThumb1 -26.253704 0.000000 33.147579
Head -42.400097 25.266934 -11.878209
1635
root 1.367554 33.736065 1.068066 81.545437 -15.874614 -24.592156
RightUpLeg -10.022475 14.206728 -27.404343
RightLeg 151.829084 -0.000000 -0.000000
RightFoot 34.358268 4.985124 5.119625
RightToeBase -17.921725 -0.000000 0.000000
LeftUpLeg -83.630440 13.394045 9.131261
LeftLeg 30.927360 -0.000000 -0.000000
LeftFoot -26.171328 13.725073 -9.090431
LeftToeBase 6.973998 -0.000000 -0.000000
Spine -15.132011 -5.583135 -2.014892
RightShoulder -20.775295 -30.461246 -9.778125
RightArm 7.092846 -58.973310 66.309703
RightForeArm 29.955307 -0.000000 33.571412
RightHand -8.143011 -0.000000 15.714078
RightHandThumb1 -24.326973 -0.000000 -32.862282
LeftShoulder -33.579930 1.729684 37.849181
LeftArm 135.212033 -42.823626 -107.153016
LeftForeArm -8.984562 -0.000000 54.617995
LeftHand -12.516186 -0.000000 15.370900
LeftHandThumb1 -26.253704 0.000000 33.147579
Head -42.402614 25.251154 -11.731286
1636
root 1.364310 33.749409 1.085885 81.228276 -16.085930 -24.608110
RightUpLeg -10.260504 13.883991 -27.333190
RightLeg 151.938915 -0.000000 -0.000000
RightFoot 34.376168 4.895592 5.372754
RightToeBase -18.216002 -0.000000 0.000000
LeftUpLeg -83.063049 13.267439 9.302464
LeftLeg 30.710834 -0.000000 -0.000000
LeftFoot -26.133037 14.037795 -9.044405
LeftToeBase 7.095579 -0.000000 -0.000000
Spine -15.114406 -5.472759 -2.032312
RightShoulder -20.812252 -30.334781 -9.649344
RightArm 6.943649 -58.818370 66.659417
RightForeArm 29.652834 -0.000000 33.319844
RightHand -8.014838 -0.000000 15.724515
RightHandThumb1 -24.326973 -0.000000 -32.862282
LeftShoulder -33.349323 1.394976 38.038884
LeftArm 133.807135 -42.901114 -106.384128
LeftForeArm -8.844863 -0.000000 54.710914
LeftHand -12.416892 -0.000000 15.450445
LeftHandThumb1 -26.253704 0.000000 33.147579
Head -42.321008 25.271250 -11.625502
